<svg width="40" height="40" viewBox="0 0 40 40" fill="none" xmlns="http://www.w3.org/2000/svg">
<path d="M38.5537 31.5711L31.7596 24.777C33.043 22.3689 33.724 19.6677 33.7239 16.8619C33.7239 12.3579 31.97 8.12344 28.7852 4.93867C25.6004 1.75398 21.3659 0 16.8619 0C16.8619 0 16.8618 0 16.8617 0C7.56422 0 0.00015625 7.5643 0 16.862C0 21.3659 1.75398 25.6004 4.93883 28.7852C8.12367 31.97 12.358 33.7239 16.8619 33.7239C19.6677 33.7239 22.3688 33.0429 24.777 31.7596L31.5712 38.5539C32.5037 39.4865 33.7437 40 35.0626 40C36.3815 40 37.6213 39.4865 38.5537 38.5539C39.4863 37.6213 39.9999 36.3812 40 35.0625C39.9999 33.7436 39.4864 32.5037 38.5537 31.5711ZM16.8619 26.1927C11.717 26.1927 7.53125 22.007 7.53109 16.862C7.53141 11.717 11.7173 7.53117 16.862 7.53109C22.0071 7.53117 26.1927 11.717 26.1927 16.862C26.1927 22.007 22.007 26.1927 16.8619 26.1927Z" fill="#16949D"/>
</svg>
